<?xml version='1.0' encoding='utf-8'?>
<svg xmlns="http://www.w3.org/2000/svg" version="1.1" x="0%" y="0%" width="100%" height="100%" viewBox="0 0 3000.0 3000.0" enable-background="new 0 0 3000.0 3000.0"> <path fill="#000000" stroke="#000000" fill-opacity="1.000" stroke-opacity="1.000" fill-rule="nonzero" stroke-width="36.39352" stroke-linejoin="miter" stroke-linecap="square" d="M257.20,1937.17C168.42,1653.06,79.63,1368.95,149.16,1179.41C218.68,989.87,446.52,894.91,614.31,857.97C782.10,821.04,889.85,842.14,914.42,869.75C938.99,897.35,880.39,931.46,802.59,1013.49C724.79,1095.52,627.79,1225.48,558.35,1336.52C488.91,1447.56,447.04,1539.69,406.19,1623.22C365.35,1706.75,325.55,1781.68,343.90,1813.81C362.25,1845.94,438.76,1835.25,566.41,1830.00C694.06,1824.74,872.86,1824.90,1014.33,1823.31C1155.81,1821.73,1259.95,1818.39,1275.22,1849.87C1290.49,1881.35,1216.88,1947.65,1149.13,1991.77C1081.38,2035.88,1019.49,2057.80,957.91,2082.29C896.32,2106.77,835.05,2133.83,774.76,2158.43C714.47,2183.04,655.16,2205.20,625.43,2234.39C595.69,2263.57,595.54,2299.79,598.40,2387.82C601.26,2475.86,607.14,2615.71,687.73,2676.91C768.32,2738.10,923.63,2720.63,1009.84,2742.72C1096.06,2764.82,1113.19,2826.48,1022.26,2847.90C931.33,2869.31,732.35,2850.48,586.09,2842.31C439.83,2834.15,346.30,2836.65,261.41,2839.92C176.51,2843.18,100.27,2847.21,79.50,2819.39C58.72,2791.58,93.43,2731.93,159.17,2700.81C224.90,2669.69,321.67,2667.10,367.54,2652.50C413.41,2637.89,408.38,2611.27,426.29,2547.26C444.20,2483.26,485.07,2381.87,509.17,2327.54C533.28,2273.21,540.63,2265.92,495.84,2208.70C451.06,2151.48,354.13,2044.32,257.20,1937.17z"/> <path fill="#000000" stroke="#000000" fill-opacity="1.000" stroke-opacity="1.000" fill-rule="nonzero" stroke-width="36.39352" stroke-linejoin="miter" stroke-linecap="square" d="M2149.31,1337.52C2027.45,1388.90,1905.59,1440.28,1798.20,1445.84C1690.81,1451.39,1597.89,1411.10,1525.85,1367.16C1453.80,1323.21,1402.65,1275.60,1343.70,1251.39C1284.75,1227.18,1218.01,1226.37,1206.11,1173.34C1194.21,1120.31,1237.16,1015.06,1287.48,1022.54C1337.81,1030.01,1395.50,1150.21,1426.45,1208.38C1457.40,1266.55,1461.59,1262.69,1537.62,1292.11C1613.65,1321.54,1761.51,1384.25,1865.67,1356.96C1969.83,1329.66,2030.28,1212.36,2056.83,1135.70C2083.37,1059.03,2076.01,1023.01,2147.67,983.83C2219.33,944.65,2370.00,902.31,2405.42,881.91C2440.83,861.51,2360.98,863.04,2300.61,861.02C2240.23,859.00,2199.32,853.43,2151.54,813.22C2103.75,773.01,2049.09,698.16,2017.31,631.84C1985.53,565.51,1976.64,507.71,1989.97,427.45C2003.31,347.18,2038.87,244.45,2108.56,168.30C2178.25,92.14,2282.07,42.55,2398.96,75.75C2515.84,108.95,2645.79,224.93,2684.47,336.72C2723.16,448.50,2670.57,556.10,2617.27,658.15C2563.97,760.21,2509.97,856.72,2527.71,901.96C2545.45,947.19,2634.92,941.14,2694.69,1013.44C2754.46,1085.75,2784.53,1236.42,2757.71,1365.34C2730.89,1494.26,2647.18,1601.44,2629.90,1768.54C2612.62,1935.63,2661.76,2162.65,2680.49,2320.26C2699.22,2477.86,2687.53,2566.06,2729.33,2632.59C2771.13,2699.12,2866.43,2743.98,2816.94,2804.61C2767.46,2865.24,2573.20,2941.64,2466.69,2925.47C2360.19,2909.29,2341.45,2800.55,2389.31,2773.54C2437.16,2746.53,2551.61,2801.26,2560.26,2629.04C2568.91,2456.83,2471.76,2057.68,2370.73,2006.02C2269.69,1954.36,2164.77,2250.19,2136.20,2455.29C2107.63,2660.39,2155.41,2774.76,2065.67,2834.49C1975.92,2894.23,1748.64,2899.34,1652.42,2861.08C1556.20,2822.83,1591.04,2741.22,1675.05,2728.04C1759.06,2714.87,1892.26,2770.12,1937.72,2720.92C1983.18,2671.71,1940.90,2518.06,1937.74,2422.48C1934.58,2326.90,1970.54,2289.41,1994.61,2234.47C2018.68,2179.53,2030.88,2107.14,2054.68,1954.74C2078.48,1802.33,2113.90,1569.93,2149.31,1337.52z"/> <path fill="#000000" stroke="#000000" fill-opacity="1.000" stroke-opacity="1.000" fill-rule="nonzero" stroke-width="36.39352" stroke-linejoin="miter" stroke-linecap="square" d="M1567.45,485.95L1206.11,1283.08"/> <path fill="#000000" stroke="#000000" fill-opacity="1.000" stroke-opacity="1.000" fill-rule="nonzero" stroke-width="36.39352" stroke-linejoin="miter" stroke-linecap="square" d="M1578.14,152.00L1835.17,257.72L1726.71,521.43L1469.67,415.72z"/> <path fill="#000000" stroke="#000000" fill-opacity="0.016" stroke-opacity="1.000" fill-rule="nonzero" stroke-width="36.39352" stroke-linejoin="miter" stroke-linecap="square" d="M517.31,915.77C534.17,844.22,551.04,772.66,594.34,732.78C637.64,692.90,707.36,684.68,763.19,691.48C819.01,698.27,860.94,720.08,883.36,749.57C905.77,779.07,908.67,816.26,844.41,845.25C780.15,874.23,648.73,895.00,517.31,915.77z"/> <path fill="#000000" stroke="#000000" fill-opacity="0.016" stroke-opacity="1.000" fill-rule="nonzero" stroke-width="36.39352" stroke-linejoin="miter" stroke-linecap="square" d="M1045.09,1738.75C971.20,1690.41,897.30,1642.06,916.18,1600.98C935.05,1559.90,1046.70,1526.09,1074.17,1491.14C1101.63,1456.20,1044.92,1420.12,1004.36,1401.65C963.79,1383.19,939.37,1382.34,940.91,1370.47C942.45,1358.60,969.93,1335.72,990.58,1321.77C1011.22,1307.81,1025.02,1302.80,1032.07,1284.23C1039.13,1265.67,1039.44,1233.56,1039.75,1201.45"/> <path fill="#000000" stroke="#000000" fill-opacity="0.016" stroke-opacity="1.000" fill-rule="nonzero" stroke-width="36.39352" stroke-linejoin="miter" stroke-linecap="square" d="M847.61,1738.75C773.72,1690.41,699.82,1642.06,718.69,1600.98C737.57,1559.90,849.22,1526.09,876.68,1491.14C904.15,1456.20,847.44,1420.12,806.87,1401.65C766.31,1383.19,741.89,1382.34,743.43,1370.47C744.96,1358.60,772.45,1335.72,793.10,1321.77C813.74,1307.81,827.54,1302.80,834.59,1284.23C841.64,1265.67,841.95,1233.56,842.27,1201.45"/> </svg>